# xmcd
#
# Track frame offsets:
#	150
#	15475
#	31134
#	45317
#	59528
#	73905
#	88785
#	104166
#	118961
#	134008
#	147355
#	160897
#	175860
#	189098
#	201664
#	214036
#	226603
#	240061
#	251764
#	263355
#	275755
#	289408
#	304009
#	317356
#	330284
#
# Disc length: 4560 seconds
#
# Revision: 4
# Processed by: cddbd v1.5.2PL0 Copyright (c) Steve Scherf et al.
# Submitted via: EZCDAudioConverter 7.0.9.1
#
DISCID=6911ce19
DTITLE=Various Artist - Triomphes du Blues 4,Chanteuses de Blues
DYEAR=2001
DGENRE=Blues
TTITLE0=Bessie Smith - Down hearted blues - 1923
TTITLE1=Bessie Smith - Cemetery blues - 1923
TTITLE2=Bessie Smith - Weeping willow blues - 1924
TTITLE3=Bessie Smith - St. Louis blues - 1925
TTITLE4=Bessie Smith - Cold in hand blues - 1925
TTITLE5=Bessie Smith - Soft pedal blues - 1925
TTITLE6=Bessie Smith - Careless love - 1925
TTITLE7=Bessie Smith - Black water blues - 1927
TTITLE8=Bessie Smith - Send me to the 'lectric chair - 1927
TTITLE9=Bessie Smith - Dyin' by the hour - 1927
TTITLE10=Bessie Smith - Empty bed blues, part 1 - 1928
TTITLE11=Bessie Smith - Empty bed blues, part 2 - 1928
TTITLE12=Bessie Smith - Nobody knows you when you're down and out - 1929
TTITLE13=Memphis Minnie - Bumble bee - 1929
TTITLE14=Memphis Minnie - Nothing is rambling - 1940
TTITLE15=Memphis Minnie - Me and my chauffeur - 1941
TTITLE16=Memphis Minnie - I got to make a change blues - 1941
TTITLE17=Memphis Minnie - You got to get out of here - 1941
TTITLE18=Memphis Minnie - When my man comes home - 1944
TTITLE19=Memphis Minnie - Dirty mother for you - 1935
TTITLE20=Memphis Minnie - Hoodoo lady - 1936
TTITLE21=Memphis Minnie - If you see my rooster (Please run him home) - 1936
TTITLE22=Memphis Minnie - Good morning - 1936
TTITLE23=Memphis Minnie - I've been treated wrong - 1938
TTITLE24=Memphis Minnie - I'm Sailin'
EXTD=
EXTT0=
EXTT1=
EXTT2=
EXTT3=
EXTT4=
EXTT5=
EXTT6=
EXTT7=
EXTT8=
EXTT9=
EXTT10=
EXTT11=
EXTT12=
EXTT13=
EXTT14=
EXTT15=
EXTT16=
EXTT17=
EXTT18=
EXTT19=
EXTT20=
EXTT21=
EXTT22=
EXTT23=
EXTT24=
PLAYORDER=
